<svg width="64" height="64" viewBox="0 0 64 64" fill="none" xmlns="http://www.w3.org/2000/svg">
<path d="M58.625 26.625H55.5C54.4167 22.125 52.25 18.25 49 15C45.75 11.75 41.875 9.58333 37.375 8.5V5.375C37.375 3.875 36.8333 2.60417 35.75 1.5625C34.6667 0.520833 33.4167 0 32 0C30.5833 0 29.3333 0.520833 28.25 1.5625C27.1667 2.60417 26.625 3.875 26.625 5.375V8.5C22.125 9.58333 18.25 11.75 15 15C11.75 18.25 9.58333 22.125 8.5 26.625H5.375C3.875 26.625 2.60417 27.1667 1.5625 28.25C0.520833 29.3333 0 30.5833 0 32C0 33.4167 0.520833 34.6667 1.5625 35.75C2.60417 36.8333 3.875 37.375 5.375 37.375H8.5C9.58333 41.875 11.75 45.75 15 49C18.25 52.25 22.125 54.4167 26.625 55.5V58.625C26.625 60.125 27.1667 61.3958 28.25 62.4375C29.3333 63.4792 30.5833 64 32 64C33.4167 64 34.6667 63.4792 35.75 62.4375C36.8333 61.3958 37.375 60.125 37.375 58.625V55.5C41.875 54.4167 45.75 52.25 49 49C52.25 45.75 54.4167 41.875 55.5 37.375H58.625C60.125 37.375 61.3958 36.8333 62.4375 35.75C63.4792 34.6667 64 33.4167 64 32C64 30.5833 63.4792 29.3333 62.4375 28.25C61.3958 27.1667 60.125 26.625 58.625 26.625ZM37.375 49.875V48C37.375 46.5833 36.8333 45.3333 35.75 44.25C34.6667 43.1667 33.4167 42.625 32 42.625C30.5833 42.625 29.3333 43.1667 28.25 44.25C27.1667 45.3333 26.625 46.5833 26.625 48V49.875C23.5417 48.9583 20.9167 47.4167 18.75 45.25C16.5833 43.0833 15.0417 40.4583 14.125 37.375H16C17.4167 37.375 18.6667 36.8333 19.75 35.75C20.8333 34.6667 21.375 33.4167 21.375 32C21.375 30.5833 20.8333 29.3333 19.75 28.25C18.6667 27.1667 17.4167 26.625 16 26.625H14.125C15.0417 23.5417 16.5833 20.9167 18.75 18.75C20.9167 16.5833 23.5417 15.0417 26.625 14.125V16C26.625 17.4167 27.1667 18.6667 28.25 19.75C29.3333 20.8333 30.5833 21.375 32 21.375C33.4167 21.375 34.6667 20.8333 35.75 19.75C36.8333 18.6667 37.375 17.4167 37.375 16V14.125C43.625 16.0417 47.7917 20.2083 49.875 26.625H48C46.5833 26.625 45.3333 27.1667 44.25 28.25C43.1667 29.3333 42.625 30.5833 42.625 32C42.625 33.4167 43.1667 34.6667 44.25 35.75C45.3333 36.8333 46.5833 37.375 48 37.375H49.875C48.9583 40.4583 47.4167 43.0833 45.25 45.25C43.0833 47.4167 40.4583 48.9583 37.375 49.875Z" fill="#F19335"/>
</svg>
