<svg width="434" height="96" viewBox="0 0 434 96" fill="none" xmlns="http://www.w3.org/2000/svg">
<path d="M64.9373 0H72.4904C78.0293 0 82.5612 4.54737 82.5612 10.1053V42.4421L64.9373 0ZM92.1284 8.08421L98.6744 11.1158C103.71 13.1368 106.228 19.2 104.213 24.2526L92.1284 54.0632V8.08421ZM81.5541 67.2L56.3771 6.56842C54.8665 2.52632 51.3417 0.505263 47.3134 0.505263C45.8028 0.505263 44.7957 1.01053 43.2851 1.51579L6.0231 16.6737C0.987706 18.6947 -1.52999 24.2526 0.987706 29.3053L26.1647 89.9368C27.6753 93.9789 31.2001 96 35.2284 96C36.739 96 37.7461 96 39.2567 94.9895L76.5187 79.8316C80.547 78.3158 82.5612 74.779 82.5612 70.7368C82.0576 69.7263 82.0576 68.2105 81.5541 67.2ZM48.3205 64.6737L32.2072 52.5474L34.2213 32.3368L50.3346 44.4632L48.3205 64.6737Z" fill="#F19335"/>
<path d="M123.851 93.0694C121.837 93.0694 120.192 92.3958 118.917 91.0484C117.641 89.7684 116.97 88.0505 116.903 85.8947L116.802 67.9073C116.802 57.2631 117.003 48.4379 117.406 41.4316L117.507 38.0968C117.507 35.6042 117.373 31.8653 117.104 26.88C116.97 22.9053 118.648 20.2779 122.139 18.9979L123.851 17.9874C125.194 17.2463 126.503 16.8758 127.779 16.8758C128.988 16.8758 130.095 17.2126 131.102 17.8863C132.177 18.4926 133.049 19.4021 133.721 20.6147C134.594 22.1642 135.466 24.2189 136.339 26.7789L144.094 47.3937C144.094 47.3937 144.362 48 144.899 49.2126L146.309 46.3831L153.56 27.4863C154.366 25.6674 155.172 24.1179 155.977 22.8379C157.79 20.0084 160.073 18.5937 162.825 18.5937C164.974 18.5937 166.787 19.1326 168.264 20.2105C169.808 21.2884 170.882 22.8042 171.486 24.7579C172.426 27.7895 172.896 30.5179 172.896 32.9431C173.366 52.4126 173.601 69.0526 173.601 82.8631C173.601 84.9516 172.963 86.6694 171.688 88.0168C170.412 89.3642 168.767 90.0379 166.753 90.0379C165.276 90.0379 163.967 89.6673 162.825 88.9263C161.684 88.1852 160.878 87.141 160.408 85.7937C160.006 84.6484 159.804 83.1663 159.804 81.3473C159.67 73.9368 159.603 68.3452 159.603 64.5726L159.502 56.1852V53.5579C159.301 53.4905 159.032 53.4568 158.696 53.4568L157.689 55.8821L151.748 69.9284C150.673 72.2863 149.028 73.8358 146.813 74.5768C145.739 74.8463 144.967 74.981 144.497 74.981C143.02 74.981 141.677 74.5431 140.468 73.6673C139.327 72.7916 138.421 71.5452 137.749 69.9284C136.272 66.4252 134.862 62.8884 133.519 59.3179L132.714 57.2968L131.707 54.8716L131.102 54.9726C131.035 55.3095 130.968 55.7473 130.901 56.2863C130.834 56.7579 130.8 57.3305 130.8 58.0042L130.901 76.0926V80.4379C130.901 83.3347 130.834 85.4905 130.7 86.9052C130.498 88.7916 129.76 90.2737 128.484 91.3515C127.208 92.4968 125.664 93.0694 123.851 93.0694Z" fill="#F19335"/>
<path d="M194.756 92.261C192.071 91.4526 189.889 90.2063 188.21 88.5221C186.532 86.8379 185.491 84.7158 185.088 82.1558C184.484 78.5852 184.048 73.1958 183.779 65.9873C183.712 64.5726 183.678 62.3831 183.678 59.4189V51.7389C183.813 48.5052 183.88 45.8779 183.88 43.8568C184.148 36.7158 184.316 30.821 184.383 26.1726C184.383 22.8716 185.323 20.3116 187.203 18.4926C189.15 16.6063 191.735 15.4274 194.958 14.9558C198.315 14.4842 202.309 14.1137 206.942 13.8442L211.071 13.541C213.286 13.4063 215.166 14.0463 216.711 15.461C218.255 16.8084 219.027 18.56 219.027 20.7158C219.027 22.6021 218.389 24.1853 217.113 25.4653C215.838 26.6779 214.159 27.3853 212.078 27.5874C206.707 27.9916 202.846 28.261 200.497 28.3958C199.624 28.4631 199.02 28.6989 198.684 29.1031C198.348 29.44 198.147 30.0126 198.08 30.821C198.08 34.5937 198.012 40.1852 197.878 47.5958C197.878 48.2021 197.979 48.6737 198.18 49.0105C198.382 49.28 198.717 49.4147 199.187 49.4147C199.523 49.4147 199.792 49.381 199.993 49.3137C200.866 49.1116 201.839 49.0105 202.914 49.0105C204.659 49.0779 206.17 49.6842 207.445 50.8295C208.721 51.9747 209.493 53.4568 209.762 55.2758C209.963 56.8252 209.594 58.341 208.654 59.8231C207.714 61.2379 206.438 62.181 204.827 62.6526C203.216 63.0568 201.537 63.36 199.792 63.5621C198.315 63.7642 197.61 64.6063 197.677 66.0884L197.878 70.2316C197.878 72.32 197.979 74.3747 198.18 76.3958C198.315 77.2716 198.482 77.8779 198.684 78.2147C198.885 78.5516 199.254 78.72 199.792 78.72C200.262 78.72 200.664 78.6863 201 78.6189C202.276 78.3494 203.854 77.9789 205.733 77.5073C206.539 77.2379 207.412 77.1031 208.352 77.1031C209.762 77.1031 211.004 77.4737 212.078 78.2147C213.219 78.9558 214.059 79.9663 214.596 81.2463C214.999 82.1221 215.2 83.0989 215.2 84.1768C215.2 85.5915 214.831 86.9052 214.092 88.1179C213.354 89.2631 212.313 90.0716 210.97 90.5431C206.539 92.16 202.813 92.9684 199.792 92.9684C198.046 92.9684 196.368 92.7326 194.756 92.261Z" fill="#F19335"/>
<path d="M235.181 93.0694C233.167 93.0694 231.522 92.3958 230.246 91.0484C228.971 89.7684 228.299 88.0505 228.232 85.8947L228.131 67.9073C228.131 57.2631 228.333 48.4379 228.736 41.4316L228.836 38.0968C228.836 35.6042 228.702 31.8653 228.434 26.88C228.299 22.9053 229.978 20.2779 233.469 18.9979L235.181 17.9874C236.524 17.2463 237.833 16.8758 239.109 16.8758C240.317 16.8758 241.425 17.2126 242.432 17.8863C243.506 18.4926 244.379 19.4021 245.05 20.6147C245.923 22.1642 246.796 24.2189 247.669 26.7789L255.423 47.3937C255.423 47.3937 255.692 48 256.229 49.2126L257.639 46.3831L264.89 27.4863C265.696 25.6674 266.501 24.1179 267.307 22.8379C269.12 20.0084 271.402 18.5937 274.155 18.5937C276.303 18.5937 278.116 19.1326 279.593 20.2105C281.137 21.2884 282.212 22.8042 282.816 24.7579C283.756 27.7895 284.226 30.5179 284.226 32.9431C284.696 52.4126 284.931 69.0526 284.931 82.8631C284.931 84.9516 284.293 86.6694 283.017 88.0168C281.742 89.3642 280.097 90.0379 278.083 90.0379C276.606 90.0379 275.296 89.6673 274.155 88.9263C273.014 88.1852 272.208 87.141 271.738 85.7937C271.335 84.6484 271.134 83.1663 271.134 81.3473C271 73.9368 270.932 68.3452 270.932 64.5726L270.832 56.1852V53.5579C270.63 53.4905 270.362 53.4568 270.026 53.4568L269.019 55.8821L263.077 69.9284C262.003 72.2863 260.358 73.8358 258.142 74.5768C257.068 74.8463 256.296 74.981 255.826 74.981C254.349 74.981 253.006 74.5431 251.798 73.6673C250.656 72.7916 249.75 71.5452 249.079 69.9284C247.602 66.4252 246.192 62.8884 244.849 59.3179L244.043 57.2968L243.036 54.8716L242.432 54.9726C242.365 55.3095 242.298 55.7473 242.231 56.2863C242.163 56.7579 242.13 57.3305 242.13 58.0042L242.231 76.0926V80.4379C242.231 83.3347 242.163 85.4905 242.029 86.9052C241.828 88.7916 241.089 90.2737 239.814 91.3515C238.538 92.4968 236.994 93.0694 235.181 93.0694Z" fill="#F19335"/>
<path d="M323.206 85.6926C320.185 88.5221 316.66 89.9368 312.632 89.9368C309.812 89.9368 307.194 89.1621 304.777 87.6126C302.36 85.9958 300.513 83.7389 299.238 80.8421C297.693 77.2716 296.586 73.3979 295.914 69.221C295.31 65.381 295.008 61.5073 295.008 57.6C295.008 49.92 296.25 42.4421 298.734 35.1663C299.54 32.6737 300.983 29.7095 303.065 26.2737C305.28 22.7031 308.503 20.3453 312.733 19.2C313.538 18.9979 314.277 18.8968 314.948 18.8968C316.895 18.8968 318.574 19.6042 319.983 21.0189C321.058 21.8947 321.628 22.3663 321.696 22.4337C327.939 26.2737 331.666 32.3031 332.874 40.5221C333.143 42.0716 333.344 43.8568 333.478 45.8779C333.68 47.8316 333.814 49.2126 333.881 50.021L334.183 53.2547C334.049 57.8358 333.613 62.0463 332.874 65.8863C332.203 69.6589 331.028 73.2968 329.349 76.8C327.402 80.7747 325.355 83.7389 323.206 85.6926ZM314.243 74.6779C315.116 73.5326 315.955 72.1516 316.761 70.5347C317.969 68.0421 318.809 65.4821 319.279 62.8547C319.748 60.16 320.118 56.9937 320.386 53.3558L319.883 50.021C319.211 45.3052 318.641 41.8021 318.171 39.5116C317.969 38.501 317.164 37.221 315.754 35.6716C315.418 35.2 315.082 34.9642 314.747 34.9642C314.277 34.9642 313.874 35.3347 313.538 36.0758C313.337 36.6147 312.967 37.4231 312.43 38.501C311.96 39.5789 311.625 40.5221 311.423 41.3305C309.879 46.4505 309.107 51.941 309.107 57.8021C309.107 59.8905 309.208 62.0463 309.409 64.2695C309.543 65.7516 309.812 67.4021 310.215 69.221C310.685 70.9726 311.155 72.6568 311.625 74.2737C311.893 75.2168 312.296 75.6884 312.833 75.6884C313.303 75.6884 313.773 75.3516 314.243 74.6779Z" fill="#F19335"/>
<path d="M351.128 92.0589C349.584 92.0589 348.208 91.621 346.999 90.7452C345.858 89.9368 345.086 88.8252 344.683 87.4105C344.414 86.4673 344.28 85.0189 344.28 83.0652L344.784 62.7537C344.851 61.6084 344.884 59.9242 344.884 57.701C345.019 51.9747 345.22 47.7305 345.489 44.9684C345.891 38.4337 347.603 32.741 350.625 27.8905C352.37 25.061 354.418 22.9389 356.768 21.5242C359.185 20.1095 361.736 19.4021 364.422 19.4021C366.973 19.4021 369.457 20.0421 371.874 21.3221C374.291 22.6021 376.372 24.3874 378.118 26.6779C379.729 28.7663 380.971 31.1579 381.844 33.8526C382.784 36.48 383.254 39.2084 383.254 42.0379C383.254 45.6758 382.448 49.1452 380.837 52.4463C379.226 55.68 376.708 58.4421 373.284 60.7326C372.478 61.3389 372.075 61.9116 372.075 62.4505C372.075 62.7873 372.243 63.2926 372.579 63.9663L381.542 80.4379C382.348 81.8526 382.751 83.2 382.751 84.48C382.751 86.5684 382.046 88.2526 380.636 89.5326C379.293 90.8126 377.682 91.4526 375.802 91.4526C374.056 91.4526 372.512 90.8463 371.169 89.6337C370.229 88.6905 369.524 87.7137 369.054 86.7031L360.293 70.9389L359.386 69.221C359.252 69.2884 359.017 69.3221 358.681 69.3221L358.581 72.1516L358.379 76.8C358.379 80.2358 358.245 83.301 357.976 85.9958C357.909 87.7473 357.204 89.1958 355.861 90.341C354.519 91.4863 352.941 92.0589 351.128 92.0589ZM359.487 51.3347C359.823 51.2673 360.46 51.1326 361.4 50.9305C362.34 50.661 363.18 50.3579 363.918 50.021C367.342 48.4716 369.188 45.7768 369.457 41.9368C369.323 41.3979 369.054 40.5221 368.651 39.3095C368.316 38.0968 367.946 37.0863 367.544 36.2779C367.208 35.7389 366.738 35.2337 366.134 34.7621C365.597 34.2231 365.059 33.8863 364.522 33.7516C364.254 33.6842 363.851 33.9537 363.314 34.56C362.777 35.0989 362.374 35.6379 362.105 36.1768C360.561 38.8716 359.621 42.4084 359.286 46.7874C359.218 47.5284 359.218 48.3705 359.286 49.3137C359.42 50.2568 359.487 50.9305 359.487 51.3347Z" fill="#F19335"/>
<path d="M412.235 89.9368C410.288 89.9368 408.643 89.2968 407.3 88.0168C406.025 86.7368 405.353 85.0863 405.286 83.0652L405.186 78.72C405.186 77.1705 405.219 75.7558 405.286 74.4758L405.689 64.2695C405.689 63.6631 405.622 63.1579 405.488 62.7537C405.353 62.3495 405.051 62.0126 404.581 61.7431C398.807 58.6442 395.283 53.1873 394.007 45.3726C393.47 42.0042 392.866 36.8842 392.194 30.0126C391.993 28.6652 391.758 26.5768 391.489 23.7474L391.389 22.2316C391.389 21.6926 391.456 20.9516 391.59 20.0084C391.926 18.3242 392.731 16.9768 394.007 15.9663C395.35 14.8884 396.928 14.3495 398.74 14.3495C400.486 14.3495 401.996 14.9895 403.272 16.2695C404.548 17.4821 405.286 19.0316 405.488 20.9179C406.293 29.541 406.965 36.1768 407.502 40.8252C407.838 43.1158 408.442 45.2379 409.315 47.1916C410.053 48.8084 410.96 49.6168 412.034 49.6168C413.041 49.6168 413.981 48.9095 414.854 47.4947C416.666 44.6652 417.875 40.9263 418.479 36.2779C418.815 33.9874 419.184 30.3158 419.587 25.2631C419.788 23.04 420.527 21.2884 421.802 20.0084C423.078 18.661 424.689 17.9874 426.636 17.9874C428.449 17.9874 430.027 18.5937 431.37 19.8063C432.78 20.9516 433.485 22.3663 433.485 24.0505C433.485 29.5074 433.115 34.4926 432.377 39.0063C431.705 43.4526 430.396 47.7305 428.449 51.84C427.442 53.9284 426.334 55.781 425.126 57.3979C423.917 58.9473 422.474 60.261 420.795 61.3389C420.325 61.6758 420.023 62.0463 419.889 62.4505C419.755 62.8547 419.654 63.4273 419.587 64.1684L419.285 82.661C419.218 84.8168 418.513 86.5684 417.17 87.9158C415.894 89.2631 414.249 89.9368 412.235 89.9368Z" fill="#F19335"/>
</svg>
