<svg width="71" height="64" viewBox="0 0 71 64" fill="none" xmlns="http://www.w3.org/2000/svg">
<path d="M43.4396 0H48.4923C52.1975 0 55.2291 3.03158 55.2291 6.73684V28.2947L43.4396 0ZM61.6291 5.38947L66.008 7.41053C69.3765 8.75789 71.0607 12.8 69.7133 16.1684L61.6291 36.0421V5.38947ZM54.5554 44.8L37.7133 4.37895C36.7028 1.68421 34.3449 0.336842 31.6502 0.336842C30.6397 0.336842 29.966 0.673684 28.9554 1.01053L4.02914 11.1158C0.660724 12.4632 -1.02349 16.1684 0.660723 19.5368L17.5028 59.9579C18.5133 62.6526 20.8712 64 23.566 64C24.5765 64 25.2502 64 26.2607 63.3263L51.187 53.2211C53.8817 52.2105 55.2291 49.8526 55.2291 47.1579C54.8923 46.4842 54.8923 45.4737 54.5554 44.8ZM32.3239 43.1158L21.5449 35.0316L22.8923 21.5579L33.6712 29.6421L32.3239 43.1158Z" fill="#F19335"/>
</svg>
