<svg width="85" height="80" viewBox="0 0 85 80" fill="none" xmlns="http://www.w3.org/2000/svg">
<path fill-rule="evenodd" clip-rule="evenodd" d="M64.885 5H20.45V10.155H5V34.335C5 43.68 15.43 51.37 25.665 52.17C29.025 55.77 34.935 58.385 40.195 59.5V65.82C35.165 67.365 26.18 70.995 25.665 74.95H60.185C59.665 70.995 49.765 67.36 44.725 65.82V59.5C50.005 58.385 56.18 55.77 59.545 52.17C69.775 51.37 79.745 43.68 79.745 34.335V10.155H64.885V5ZM9.745 14.735H20.09V35.565C20.09 39.675 21.15 43.585 23.015 47.105C15.275 44.64 9.745 38.29 9.745 30.86V14.735ZM50.265 40.14L42.545 35.885L34.815 40.14L36.29 31.14L30.04 24.77L38.675 23.455L42.545 15.275L46.405 23.455L55.04 24.77L48.79 31.14L50.265 40.14ZM61.74 47.77C63.615 44.09 64.69 40.02 64.69 35.715V14.87H75.06V30.8C75.06 38.565 69.505 45.195 61.74 47.77Z" fill="#F19335"/>
</svg>
