<svg width="64" height="64" viewBox="0 0 64 64" fill="none" xmlns="http://www.w3.org/2000/svg">
<path d="M56.7564 22.0686L40.8876 19.7623L33.7939 5.38108C33.6001 4.98733 33.2814 4.66858 32.8876 4.47483C31.9001 3.98733 30.7001 4.39358 30.2064 5.38108L23.1126 19.7623L7.24387 22.0686C6.80637 22.1311 6.40637 22.3373 6.10012 22.6498C5.72988 23.0304 5.52586 23.5423 5.53289 24.0732C5.53992 24.6041 5.75743 25.1105 6.13762 25.4811L17.6189 36.6748L14.9064 52.4811C14.8428 52.8488 14.8834 53.2269 15.0238 53.5727C15.1642 53.9184 15.3986 54.2179 15.7005 54.4372C16.0025 54.6565 16.3598 54.7868 16.732 54.8133C17.1042 54.8398 17.4764 54.7616 17.8064 54.5873L32.0001 47.1248L46.1939 54.5873C46.5814 54.7936 47.0314 54.8623 47.4626 54.7873C48.5501 54.5998 49.2814 53.5686 49.0939 52.4811L46.3814 36.6748L57.8626 25.4811C58.1751 25.1748 58.3814 24.7748 58.4439 24.3373C58.6126 23.2436 57.8501 22.2311 56.7564 22.0686V22.0686Z" fill="#F57187"/>
</svg>
