<svg width="68" height="64" viewBox="0 0 68 64" fill="none" xmlns="http://www.w3.org/2000/svg">
<path fill-rule="evenodd" clip-rule="evenodd" d="M51.908 4H16.36V8.124H4V27.468C4 34.944 12.344 41.096 20.532 41.736C23.22 44.616 27.948 46.708 32.156 47.6V52.656C28.132 53.892 20.944 56.796 20.532 59.96H48.148C47.732 56.796 39.812 53.888 35.78 52.656V47.6C40.004 46.708 44.944 44.616 47.636 41.736C55.82 41.096 63.796 34.944 63.796 27.468V8.124H51.908V4ZM7.796 11.788H16.072V28.452C16.072 31.74 16.92 34.868 18.412 37.684C12.22 35.712 7.796 30.632 7.796 24.688V11.788ZM40.212 32.112L34.036 28.708L27.852 32.112L29.032 24.912L24.032 19.816L30.94 18.764L34.036 12.22L37.124 18.764L44.032 19.816L39.032 24.912L40.212 32.112ZM49.392 38.216C50.892 35.272 51.752 32.016 51.752 28.572V11.896H60.048V24.64C60.048 30.852 55.604 36.156 49.392 38.216Z" fill="#99C053"/>
</svg>
